<svg width="293" height="91" viewBox="0 0 293 91" fill="none" xmlns="http://www.w3.org/2000/svg">
<rect y="70" width="60" height="20" fill="#3D3D3D"/>
<rect width="20" height="90" fill="#3D3D3D"/>
<rect x="50" y="35" width="70" height="20" fill="#53BE39"/>
<rect x="30" width="70" height="20" fill="#53BE39"/>
<path d="M70.5227 90V50.7273H76.5568V90H70.5227ZM73.5909 44.1818C72.4148 44.1818 71.4006 43.7812 70.5483 42.9801C69.7131 42.179 69.2955 41.2159 69.2955 40.0909C69.2955 38.9659 69.7131 38.0028 70.5483 37.2017C71.4006 36.4006 72.4148 36 73.5909 36C74.767 36 75.7727 36.4006 76.608 37.2017C77.4602 38.0028 77.8864 38.9659 77.8864 40.0909C77.8864 41.2159 77.4602 42.179 76.608 42.9801C75.7727 43.7812 74.767 44.1818 73.5909 44.1818ZM115.427 59.5227L110.006 61.0568C109.665 60.1534 109.163 59.2756 108.498 58.4233C107.85 57.554 106.964 56.8381 105.839 56.2756C104.714 55.7131 103.273 55.4318 101.518 55.4318C99.1143 55.4318 97.1115 55.9858 95.5092 57.0938C93.924 58.1847 93.1314 59.5739 93.1314 61.2614C93.1314 62.7614 93.6768 63.946 94.7678 64.8153C95.8587 65.6847 97.5632 66.4091 99.8814 66.9886L105.711 68.4205C109.222 69.2727 111.839 70.5767 113.56 72.3324C115.282 74.071 116.143 76.3125 116.143 79.0568C116.143 81.3068 115.495 83.3182 114.2 85.0909C112.921 86.8636 111.131 88.2614 108.83 89.2841C106.529 90.3068 103.853 90.8182 100.802 90.8182C96.7962 90.8182 93.4808 89.9489 90.8558 88.2102C88.2308 86.4716 86.5689 83.9318 85.87 80.5909L91.5973 79.1591C92.1428 81.2727 93.174 82.858 94.6911 83.9148C96.2251 84.9716 98.228 85.5 100.7 85.5C103.512 85.5 105.745 84.9034 107.398 83.7102C109.069 82.5 109.904 81.0511 109.904 79.3636C109.904 78 109.427 76.858 108.472 75.9375C107.518 75 106.052 74.3011 104.075 73.8409L97.5291 72.3068C93.9325 71.4545 91.2905 70.1335 89.603 68.3438C87.9325 66.5369 87.0973 64.2784 87.0973 61.5682C87.0973 59.3523 87.7195 57.392 88.9638 55.6875C90.2251 53.983 91.9382 52.6449 94.103 51.6733C96.2848 50.7017 98.7564 50.2159 101.518 50.2159C105.404 50.2159 108.455 51.0682 110.671 52.7727C112.904 54.4773 114.489 56.7273 115.427 59.5227ZM117.837 43.2614V37.6364H157.109V43.2614H140.643V90H134.303V43.2614H117.837ZM176.337 90.8182C172.791 90.8182 169.68 89.9744 167.004 88.2869C164.345 86.5994 162.266 84.2386 160.766 81.2045C159.283 78.1705 158.541 74.625 158.541 70.5682C158.541 66.4773 159.283 62.9062 160.766 59.8551C162.266 56.804 164.345 54.4347 167.004 52.7472C169.68 51.0597 172.791 50.2159 176.337 50.2159C179.882 50.2159 182.984 51.0597 185.643 52.7472C188.32 54.4347 190.399 56.804 191.882 59.8551C193.382 62.9062 194.132 66.4773 194.132 70.5682C194.132 74.625 193.382 78.1705 191.882 81.2045C190.399 84.2386 188.32 86.5994 185.643 88.2869C182.984 89.9744 179.882 90.8182 176.337 90.8182ZM176.337 85.3977C179.03 85.3977 181.246 84.7074 182.984 83.3267C184.723 81.946 186.01 80.1307 186.845 77.8807C187.68 75.6307 188.098 73.1932 188.098 70.5682C188.098 67.9432 187.68 65.4972 186.845 63.2301C186.01 60.9631 184.723 59.1307 182.984 57.733C181.246 56.3352 179.03 55.6364 176.337 55.6364C173.643 55.6364 171.428 56.3352 169.689 57.733C167.95 59.1307 166.663 60.9631 165.828 63.2301C164.993 65.4972 164.575 67.9432 164.575 70.5682C164.575 73.1932 164.993 75.6307 165.828 77.8807C166.663 80.1307 167.95 81.946 169.689 83.3267C171.428 84.7074 173.643 85.3977 176.337 85.3977ZM220.32 90H204.161V37.6364H221.036C226.116 37.6364 230.462 38.6847 234.076 40.7812C237.69 42.8608 240.46 45.8523 242.386 49.7557C244.312 53.642 245.275 58.2955 245.275 63.7159C245.275 69.1705 244.303 73.8665 242.36 77.804C240.417 81.7244 237.587 84.7415 233.871 86.8551C230.156 88.9517 225.638 90 220.32 90ZM210.502 84.375H219.911C224.241 84.375 227.829 83.5398 230.675 81.8693C233.522 80.1989 235.644 77.821 237.042 74.7358C238.44 71.6506 239.138 67.9773 239.138 63.7159C239.138 59.4886 238.448 55.8494 237.067 52.7983C235.687 49.7301 233.624 47.3778 230.88 45.7415C228.136 44.0881 224.718 43.2614 220.627 43.2614H210.502V84.375ZM271.048 90.8182C267.502 90.8182 264.391 89.9744 261.715 88.2869C259.056 86.5994 256.977 84.2386 255.477 81.2045C253.994 78.1705 253.252 74.625 253.252 70.5682C253.252 66.4773 253.994 62.9062 255.477 59.8551C256.977 56.804 259.056 54.4347 261.715 52.7472C264.391 51.0597 267.502 50.2159 271.048 50.2159C274.593 50.2159 277.695 51.0597 280.354 52.7472C283.031 54.4347 285.11 56.804 286.593 59.8551C288.093 62.9062 288.843 66.4773 288.843 70.5682C288.843 74.625 288.093 78.1705 286.593 81.2045C285.11 84.2386 283.031 86.5994 280.354 88.2869C277.695 89.9744 274.593 90.8182 271.048 90.8182ZM271.048 85.3977C273.741 85.3977 275.957 84.7074 277.695 83.3267C279.434 81.946 280.721 80.1307 281.556 77.8807C282.391 75.6307 282.809 73.1932 282.809 70.5682C282.809 67.9432 282.391 65.4972 281.556 63.2301C280.721 60.9631 279.434 59.1307 277.695 57.733C275.957 56.3352 273.741 55.6364 271.048 55.6364C268.354 55.6364 266.138 56.3352 264.4 57.733C262.661 59.1307 261.374 60.9631 260.539 63.2301C259.704 65.4972 259.286 67.9432 259.286 70.5682C259.286 73.1932 259.704 75.6307 260.539 77.8807C261.374 80.1307 262.661 81.946 264.4 83.3267C266.138 84.7074 268.354 85.3977 271.048 85.3977Z" fill="#3D3D3D"/>
</svg>
