<?xml version="1.0" encoding="iso-8859-1"?>
<!-- Generator: Adobe Illustrator 19.0.0, SVG Export Plug-In . SVG Version: 6.00 Build 0)  -->
<svg version="1.1" id="Layer_1" xmlns="http://www.w3.org/2000/svg" xmlns:xlink="http://www.w3.org/1999/xlink" x="0px" y="0px"
	 viewBox="0 0 492.308 492.308" fill="#777" style="enable-background:new 0 0 492.308 492.308;" xml:space="preserve">
<g>
	<g>
		<polygon points="305.144,247.034 291.221,233.111 246.154,278.18 201.087,233.111 187.163,247.034 232.231,292.103 
			187.163,337.173 201.087,351.096 246.154,306.027 291.221,351.096 305.144,337.173 260.076,292.103 		"/>
	</g>
</g>
<g>
	<g>
		<path d="M422.298,233.659c3.692-11.611,5.558-23.654,5.558-35.952c0-65.707-53.452-119.164-119.154-119.164
			c-49.721,0-94.154,31.548-111.433,77.072c-15.923-13.173-35.971-20.49-57.039-20.49c-49.423,0-89.635,40.207-89.635,89.63
			c0,5.101,0.462,10.255,1.375,15.399C20.567,255.183,0,287.245,0,322.462c0,50.346,40.962,91.303,91.308,91.303H401.01
			c50.346,0,91.298-40.957,91.298-91.303C492.308,279.462,462.981,243.264,422.298,233.659z M401.01,394.072H91.308
			c-39.49,0-71.615-32.125-71.615-71.611c0-29.904,18.923-56.909,47.077-67.192l8.538-3.12l-2.423-8.755
			c-1.721-6.226-2.596-12.5-2.596-18.639c0-38.563,31.375-69.938,69.942-69.938c21.039,0,40.76,9.356,54.125,25.663l12.885,15.731
			l4.346-19.865c9.914-45.26,50.76-78.111,97.115-78.111c54.846,0,99.462,44.62,99.462,99.471c0,13.75-2.798,27.125-8.308,39.755
			l-5.442,12.447l13.519,1.298c36.875,3.538,64.683,34.168,64.683,71.255C472.615,361.947,440.49,394.072,401.01,394.072z"/>
	</g>
</g>
<g>
</g>
<g>
</g>
<g>
</g>
<g>
</g>
<g>
</g>
<g>
</g>
<g>
</g>
<g>
</g>
<g>
</g>
<g>
</g>
<g>
</g>
<g>
</g>
<g>
</g>
<g>
</g>
<g>
</g>
</svg>
